<mxfile host="app.diagrams.net" modified="2024-03-12T10:31:33.314Z" agent="Mozilla/5.0 (Windows NT 10.0; Win64; x64) AppleWebKit/537.36 (KHTML, like Gecko) Chrome/122.0.0.0 Safari/537.36" etag="_6zvTitiVz70VfuiYElz" version="24.0.5" type="device">
  <diagram name="페이지-1" id="ZRwfyYr6JcPOX1SVvn0f">
    <mxGraphModel dx="1434" dy="746" grid="1" gridSize="10" guides="1" tooltips="1" connect="1" arrows="1" fold="1" page="1" pageScale="1" pageWidth="827" pageHeight="1169" math="0" shadow="0">
      <root>
        <mxCell id="0" />
        <mxCell id="1" parent="0" />
        <mxCell id="B0CWcxHPSsxoQ7KmdjxV-5" style="edgeStyle=orthogonalEdgeStyle;rounded=0;orthogonalLoop=1;jettySize=auto;html=1;exitX=0.5;exitY=1;exitDx=0;exitDy=0;entryX=0.5;entryY=0;entryDx=0;entryDy=0;" edge="1" parent="1" source="B0CWcxHPSsxoQ7KmdjxV-1" target="B0CWcxHPSsxoQ7KmdjxV-2">
          <mxGeometry relative="1" as="geometry" />
        </mxCell>
        <mxCell id="B0CWcxHPSsxoQ7KmdjxV-1" value="sum=0;&lt;div&gt;n입력&lt;/div&gt;" style="shape=parallelogram;perimeter=parallelogramPerimeter;whiteSpace=wrap;html=1;fixedSize=1;" vertex="1" parent="1">
          <mxGeometry x="354" y="70" width="120" height="60" as="geometry" />
        </mxCell>
        <mxCell id="B0CWcxHPSsxoQ7KmdjxV-6" style="edgeStyle=orthogonalEdgeStyle;rounded=0;orthogonalLoop=1;jettySize=auto;html=1;exitX=0.5;exitY=1;exitDx=0;exitDy=0;entryX=0.5;entryY=0;entryDx=0;entryDy=0;" edge="1" parent="1" source="B0CWcxHPSsxoQ7KmdjxV-2" target="B0CWcxHPSsxoQ7KmdjxV-3">
          <mxGeometry relative="1" as="geometry" />
        </mxCell>
        <mxCell id="B0CWcxHPSsxoQ7KmdjxV-9" value="F" style="edgeLabel;html=1;align=center;verticalAlign=middle;resizable=0;points=[];" vertex="1" connectable="0" parent="B0CWcxHPSsxoQ7KmdjxV-6">
          <mxGeometry x="-0.1143" y="3" relative="1" as="geometry">
            <mxPoint as="offset" />
          </mxGeometry>
        </mxCell>
        <mxCell id="B0CWcxHPSsxoQ7KmdjxV-2" value="n &amp;lt;= 0" style="rounded=0;whiteSpace=wrap;html=1;" vertex="1" parent="1">
          <mxGeometry x="354" y="200" width="120" height="60" as="geometry" />
        </mxCell>
        <mxCell id="B0CWcxHPSsxoQ7KmdjxV-8" style="edgeStyle=orthogonalEdgeStyle;rounded=0;orthogonalLoop=1;jettySize=auto;html=1;exitX=1;exitY=0.5;exitDx=0;exitDy=0;entryX=1;entryY=0.5;entryDx=0;entryDy=0;" edge="1" parent="1" source="B0CWcxHPSsxoQ7KmdjxV-3" target="B0CWcxHPSsxoQ7KmdjxV-2">
          <mxGeometry relative="1" as="geometry">
            <Array as="points">
              <mxPoint x="530" y="360" />
              <mxPoint x="530" y="230" />
            </Array>
          </mxGeometry>
        </mxCell>
        <mxCell id="B0CWcxHPSsxoQ7KmdjxV-3" value="sum+=n&lt;div&gt;n--&lt;/div&gt;" style="rounded=0;whiteSpace=wrap;html=1;" vertex="1" parent="1">
          <mxGeometry x="354" y="330" width="120" height="60" as="geometry" />
        </mxCell>
        <mxCell id="B0CWcxHPSsxoQ7KmdjxV-4" value="sum출력" style="shape=parallelogram;perimeter=parallelogramPerimeter;whiteSpace=wrap;html=1;fixedSize=1;" vertex="1" parent="1">
          <mxGeometry x="354" y="460" width="120" height="60" as="geometry" />
        </mxCell>
        <mxCell id="B0CWcxHPSsxoQ7KmdjxV-7" style="edgeStyle=orthogonalEdgeStyle;rounded=0;orthogonalLoop=1;jettySize=auto;html=1;exitX=0;exitY=0.5;exitDx=0;exitDy=0;entryX=0.05;entryY=0.633;entryDx=0;entryDy=0;entryPerimeter=0;" edge="1" parent="1" source="B0CWcxHPSsxoQ7KmdjxV-2" target="B0CWcxHPSsxoQ7KmdjxV-4">
          <mxGeometry relative="1" as="geometry">
            <Array as="points">
              <mxPoint x="300" y="230" />
              <mxPoint x="300" y="498" />
            </Array>
          </mxGeometry>
        </mxCell>
        <mxCell id="B0CWcxHPSsxoQ7KmdjxV-10" value="T" style="edgeLabel;html=1;align=center;verticalAlign=middle;resizable=0;points=[];" vertex="1" connectable="0" parent="B0CWcxHPSsxoQ7KmdjxV-7">
          <mxGeometry x="-0.1204" y="4" relative="1" as="geometry">
            <mxPoint as="offset" />
          </mxGeometry>
        </mxCell>
      </root>
    </mxGraphModel>
  </diagram>
</mxfile>
